<svg xmlns="http://www.w3.org/2000/svg" viewBox="0 0 32 32" id="Tulip--Streamline-Twemoji" height="32" width="32">
  <desc>
    Tulip Streamline Emoji: https://streamlinehq.com
  </desc>
  <path fill="#77b255" d="M30.889777777777773 19.555555555555554c-3.006222222222222 0 -10.577777777777778 3.1546666666666665 -14.000888888888888 6.362666666666667V15.11111111111111c0 -0.4915555555555556 -0.3973333333333333 -0.8888888888888888 -0.8888888888888888 -0.8888888888888888 -0.4906666666666667 0 -0.8888888888888888 0.3973333333333333 -0.8888888888888888 0.8888888888888888v10.969777777777777C11.77511111111111 22.816888888888887 3.9919999999999995 19.555555555555554 0.9351111111111111 19.555555555555554 0.10933333333333332 19.555555555555554 10.589333333333332 31.992888888888885 15.11111111111111 30.75466666666666V31.11111111111111c0 0.4915555555555556 0.3982222222222222 0.8888888888888888 0.8888888888888888 0.8888888888888888 0.4915555555555556 0 0.8888888888888888 -0.3973333333333333 0.8888888888888888 -0.8888888888888888v-0.3164444444444444C21.500444444444444 31.678222222222217 31.70488888888889 19.555555555555554 30.889777777777773 19.555555555555554z" stroke-width="0.8889"></path>
  <path fill="#ea596e" d="M22.22222222222222 11.926222222222222C22.22222222222222 17.571555555555555 20.70488888888889 20.444444444444443 16 20.444444444444443s-6.222222222222221 -2.872888888888889 -6.222222222222221 -8.518222222222223S14.222222222222221 0 16 0s6.222222222222221 6.280888888888889 6.222222222222221 11.926222222222222z" stroke-width="0.8889"></path>
  <path fill="#f4abba" d="M20.262222222222224 1.7777777777777777c-0.42666666666666664 0 -3.6497777777777776 12.685333333333332 -4.269333333333333 17.136888888888887C15.329777777777776 14.463111111111111 11.98311111111111 1.7777777777777777 11.555555555555555 1.7777777777777777c-0.8888888888888888 0 -5.333333333333333 8 -5.333333333333333 11.555555555555555s5.072888888888889 7.111111111111111 9.777777777777777 7.111111111111111 9.595555555555555 -3.5555555555555554 9.595555555555555 -7.111111111111111 -4.444444444444445 -11.555555555555555 -5.333333333333333 -11.555555555555555z" stroke-width="0.8889"></path>
</svg>